M48
; DRILL file {KiCad 6.0.2+dfsg-1} date Sat Sep 19 15:40:31 2026
; FORMAT={-:-/ absolute / metric / decimal}
; #@! TF.CreationDate,2026-09-19T15:40:31+09:00
; #@! TF.GenerationSoftware,Kicad,Pcbnew,6.0.2+dfsg-1
; #@! TF.FileFunction,Plated,1,2,PTH
FMAT,2
METRIC
; #@! TA.AperFunction,Plated,PTH,ComponentDrill
T1C0.700
; #@! TA.AperFunction,Plated,PTH,ComponentDrill
T2C0.800
; #@! TA.AperFunction,Plated,PTH,ComponentDrill
T3C0.920
; #@! TA.AperFunction,Plated,PTH,ComponentDrill
T4C1.000
; #@! TA.AperFunction,Plated,PTH,ComponentDrill
T5C2.300
%
G90
G05
T1
X76.0Y-44.0
X76.0Y-49.0
X81.08Y-44.0
X81.08Y-49.0
T2
X3.6Y-33.0
X3.6Y-38.0
X3.6Y-44.0
X3.6Y-46.0
X93.0Y-20.0
X93.0Y-22.0
T3
X86.5Y-37.0
X86.5Y-39.5
X86.5Y-41.5
X86.5Y-44.0
T4
X9.3Y-17.71
X9.3Y-20.25
X9.3Y-22.79
X9.3Y-25.33
X9.3Y-27.87
X9.3Y-30.41
X9.3Y-32.95
X9.3Y-35.49
X9.3Y-38.03
X9.3Y-40.57
X34.7Y-17.71
X34.7Y-20.25
X34.7Y-22.79
X34.7Y-25.33
X34.7Y-27.87
X34.7Y-30.41
X34.7Y-32.95
X34.7Y-35.49
X34.7Y-38.03
X34.7Y-40.57
X54.38Y-33.88
X54.38Y-36.42
X54.38Y-38.96
X54.38Y-41.5
X54.38Y-44.04
X54.38Y-46.58
X54.38Y-49.12
X69.62Y-33.88
X69.62Y-36.42
X69.62Y-38.96
X69.62Y-41.5
X69.62Y-44.04
X69.62Y-46.58
X69.62Y-49.12
T5
X89.21Y-33.93
X89.21Y-47.07
T0
M30
